# xmcd CD database file
#
# Track frame offsets:
#	150
#	20900
#	38877
#	59625
#	78487
#	98252
#	118005
#	138099
#	162637
#	181787
#	196455
#	218468
#
# Disc length: 3124 seconds
#
# Revision: 1
# Processed by: cddbd v1.5.2PL0 Copyright (c) Steve Scherf et al.
# Submitted via: CDex 1.51
#
DISCID=a00c320c
DTITLE=Jim Byrnes - House Of Refuge
DYEAR=2006
DGENRE=Blues
TTITLE0=Didn't It Rain
TTITLE1=Of Whom Shall I Be Afraid
TTITLE2=Running Out Of Time
TTITLE3=Big Bill's Blues
TTITLE4=Lay Me Down Sweet Jesus
TTITLE5=Today
TTITLE6=Stardust
TTITLE7=Be Ready When He Comes
TTITLE8=The Death Of Ernesto Guevara
TTITLE9=Last Fair Deal Gone Down
TTITLE10=Fortify Me
TTITLE11=The Beast In Me
EXTD=YEAR: 2006
EXTT0=
EXTT1=
EXTT2=
EXTT3=
EXTT4=
EXTT5=
EXTT6=
EXTT7=
EXTT8=
EXTT9=
EXTT10=
EXTT11=
PLAYORDER=
